<mxfile host="65bd71144e">
    <diagram id="KjG14Q_7bZ2Fs4syXYFA" name="Top Down">
        <mxGraphModel dx="1074" dy="749" grid="1" gridSize="10" guides="1" tooltips="1" connect="1" arrows="1" fold="1" page="1" pageScale="1" pageWidth="827" pageHeight="1169" math="0" shadow="0">
            <root>
                <mxCell id="0"/>
                <mxCell id="1" parent="0"/>
                <mxCell id="QtO_xw6DOo0jZK6YUWM9-8" value="" style="edgeStyle=none;html=1;" parent="1" source="QtO_xw6DOo0jZK6YUWM9-1" target="QtO_xw6DOo0jZK6YUWM9-3" edge="1">
                    <mxGeometry relative="1" as="geometry"/>
                </mxCell>
                <mxCell id="QtO_xw6DOo0jZK6YUWM9-9" style="edgeStyle=orthogonalEdgeStyle;html=1;entryX=0.5;entryY=0;entryDx=0;entryDy=0;rounded=0;" parent="1" source="QtO_xw6DOo0jZK6YUWM9-1" target="QtO_xw6DOo0jZK6YUWM9-2" edge="1">
                    <mxGeometry relative="1" as="geometry">
                        <Array as="points">
                            <mxPoint x="414" y="160"/>
                            <mxPoint x="260" y="160"/>
                        </Array>
                    </mxGeometry>
                </mxCell>
                <mxCell id="QtO_xw6DOo0jZK6YUWM9-10" style="edgeStyle=orthogonalEdgeStyle;html=1;entryX=0.5;entryY=0;entryDx=0;entryDy=0;rounded=0;" parent="1" source="QtO_xw6DOo0jZK6YUWM9-1" target="QtO_xw6DOo0jZK6YUWM9-4" edge="1">
                    <mxGeometry relative="1" as="geometry">
                        <Array as="points">
                            <mxPoint x="414" y="160"/>
                            <mxPoint x="570" y="160"/>
                        </Array>
                    </mxGeometry>
                </mxCell>
                <mxCell id="QtO_xw6DOo0jZK6YUWM9-1" value="Positive or Negative" style="rounded=0;whiteSpace=wrap;html=1;" parent="1" vertex="1">
                    <mxGeometry x="354" y="80" width="120" height="60" as="geometry"/>
                </mxCell>
                <mxCell id="QtO_xw6DOo0jZK6YUWM9-11" value="" style="edgeStyle=orthogonalEdgeStyle;rounded=0;html=1;" parent="1" source="QtO_xw6DOo0jZK6YUWM9-2" target="QtO_xw6DOo0jZK6YUWM9-5" edge="1">
                    <mxGeometry relative="1" as="geometry"/>
                </mxCell>
                <mxCell id="QtO_xw6DOo0jZK6YUWM9-2" value="Input" style="rounded=0;whiteSpace=wrap;html=1;" parent="1" vertex="1">
                    <mxGeometry x="200" y="180" width="120" height="60" as="geometry"/>
                </mxCell>
                <mxCell id="QtO_xw6DOo0jZK6YUWM9-12" value="" style="edgeStyle=orthogonalEdgeStyle;rounded=0;html=1;" parent="1" source="QtO_xw6DOo0jZK6YUWM9-3" target="QtO_xw6DOo0jZK6YUWM9-6" edge="1">
                    <mxGeometry relative="1" as="geometry"/>
                </mxCell>
                <mxCell id="QtO_xw6DOo0jZK6YUWM9-3" value="Process" style="rounded=0;whiteSpace=wrap;html=1;" parent="1" vertex="1">
                    <mxGeometry x="354" y="180" width="120" height="60" as="geometry"/>
                </mxCell>
                <mxCell id="QtO_xw6DOo0jZK6YUWM9-13" value="" style="edgeStyle=orthogonalEdgeStyle;rounded=0;html=1;" parent="1" source="QtO_xw6DOo0jZK6YUWM9-4" target="QtO_xw6DOo0jZK6YUWM9-7" edge="1">
                    <mxGeometry relative="1" as="geometry"/>
                </mxCell>
                <mxCell id="QtO_xw6DOo0jZK6YUWM9-4" value="output" style="rounded=0;whiteSpace=wrap;html=1;" parent="1" vertex="1">
                    <mxGeometry x="510" y="180" width="120" height="60" as="geometry"/>
                </mxCell>
                <mxCell id="QtO_xw6DOo0jZK6YUWM9-5" value="Get number" style="rounded=0;whiteSpace=wrap;html=1;" parent="1" vertex="1">
                    <mxGeometry x="200" y="280" width="120" height="60" as="geometry"/>
                </mxCell>
                <mxCell id="QtO_xw6DOo0jZK6YUWM9-6" value="Check if number is positive, negative, or zero" style="rounded=0;whiteSpace=wrap;html=1;" parent="1" vertex="1">
                    <mxGeometry x="354" y="280" width="120" height="60" as="geometry"/>
                </mxCell>
                <mxCell id="QtO_xw6DOo0jZK6YUWM9-7" value="Display answer" style="rounded=0;whiteSpace=wrap;html=1;" parent="1" vertex="1">
                    <mxGeometry x="510" y="280" width="120" height="60" as="geometry"/>
                </mxCell>
            </root>
        </mxGraphModel>
    </diagram>
    <diagram id="aqkya4TFRdpiTSBKbrii" name="Flowchart">
        <mxGraphModel dx="1074" dy="749" grid="1" gridSize="10" guides="1" tooltips="1" connect="1" arrows="1" fold="1" page="1" pageScale="1" pageWidth="827" pageHeight="1169" math="0" shadow="0">
            <root>
                <mxCell id="7Z-LrOooxTyzb09muiCP-0"/>
                <mxCell id="7Z-LrOooxTyzb09muiCP-1" parent="7Z-LrOooxTyzb09muiCP-0"/>
                <mxCell id="7Z-LrOooxTyzb09muiCP-7" value="" style="edgeStyle=none;html=1;" parent="7Z-LrOooxTyzb09muiCP-1" source="7Z-LrOooxTyzb09muiCP-2" target="7Z-LrOooxTyzb09muiCP-3" edge="1">
                    <mxGeometry relative="1" as="geometry"/>
                </mxCell>
                <mxCell id="7Z-LrOooxTyzb09muiCP-2" value="Start" style="strokeWidth=2;html=1;shape=mxgraph.flowchart.terminator;whiteSpace=wrap;" parent="7Z-LrOooxTyzb09muiCP-1" vertex="1">
                    <mxGeometry x="364" y="80" width="100" height="60" as="geometry"/>
                </mxCell>
                <mxCell id="7Z-LrOooxTyzb09muiCP-8" value="" style="edgeStyle=none;html=1;" parent="7Z-LrOooxTyzb09muiCP-1" source="7Z-LrOooxTyzb09muiCP-3" edge="1">
                    <mxGeometry relative="1" as="geometry">
                        <mxPoint x="414" y="260" as="targetPoint"/>
                    </mxGeometry>
                </mxCell>
                <mxCell id="7Z-LrOooxTyzb09muiCP-3" value="Get number" style="shape=parallelogram;html=1;strokeWidth=2;perimeter=parallelogramPerimeter;whiteSpace=wrap;rounded=1;arcSize=12;size=0.23;" parent="7Z-LrOooxTyzb09muiCP-1" vertex="1">
                    <mxGeometry x="364" y="170" width="100" height="60" as="geometry"/>
                </mxCell>
                <mxCell id="7Z-LrOooxTyzb09muiCP-6" value="Stop" style="strokeWidth=2;html=1;shape=mxgraph.flowchart.terminator;whiteSpace=wrap;" parent="7Z-LrOooxTyzb09muiCP-1" vertex="1">
                    <mxGeometry x="364" y="510" width="100" height="60" as="geometry"/>
                </mxCell>
                <mxCell id="3" value="" style="edgeStyle=none;html=1;" edge="1" parent="7Z-LrOooxTyzb09muiCP-1" source="0" target="2">
                    <mxGeometry relative="1" as="geometry"/>
                </mxCell>
                <mxCell id="6" style="edgeStyle=none;html=1;entryX=0;entryY=0.5;entryDx=0;entryDy=0;entryPerimeter=0;" edge="1" parent="7Z-LrOooxTyzb09muiCP-1" source="0" target="5">
                    <mxGeometry relative="1" as="geometry"/>
                </mxCell>
                <mxCell id="0" value="IF number &amp;gt; 0" style="strokeWidth=2;html=1;shape=mxgraph.flowchart.decision;whiteSpace=wrap;" vertex="1" parent="7Z-LrOooxTyzb09muiCP-1">
                    <mxGeometry x="342" y="260" width="144" height="100" as="geometry"/>
                </mxCell>
                <mxCell id="13" style="edgeStyle=orthogonalEdgeStyle;rounded=0;html=1;entryX=0.5;entryY=0;entryDx=0;entryDy=0;entryPerimeter=0;" edge="1" parent="7Z-LrOooxTyzb09muiCP-1" source="2" target="7Z-LrOooxTyzb09muiCP-6">
                    <mxGeometry relative="1" as="geometry"/>
                </mxCell>
                <mxCell id="2" value="Display number &quot; is positive&quot;" style="shape=parallelogram;html=1;strokeWidth=2;perimeter=parallelogramPerimeter;whiteSpace=wrap;rounded=1;arcSize=12;size=0.23;" vertex="1" parent="7Z-LrOooxTyzb09muiCP-1">
                    <mxGeometry x="281" y="390" width="266" height="60" as="geometry"/>
                </mxCell>
                <mxCell id="4" value="True" style="text;html=1;align=center;verticalAlign=middle;resizable=0;points=[];autosize=1;strokeColor=none;fillColor=none;" vertex="1" parent="7Z-LrOooxTyzb09muiCP-1">
                    <mxGeometry x="374" y="360" width="40" height="20" as="geometry"/>
                </mxCell>
                <mxCell id="9" value="" style="edgeStyle=none;html=1;" edge="1" parent="7Z-LrOooxTyzb09muiCP-1" source="5" target="8">
                    <mxGeometry relative="1" as="geometry"/>
                </mxCell>
                <mxCell id="12" style="edgeStyle=orthogonalEdgeStyle;html=1;entryX=0.5;entryY=0;entryDx=0;entryDy=0;rounded=0;" edge="1" parent="7Z-LrOooxTyzb09muiCP-1" source="5" target="11">
                    <mxGeometry relative="1" as="geometry"/>
                </mxCell>
                <mxCell id="5" value="IF number &amp;lt; 0" style="strokeWidth=2;html=1;shape=mxgraph.flowchart.decision;whiteSpace=wrap;" vertex="1" parent="7Z-LrOooxTyzb09muiCP-1">
                    <mxGeometry x="570" y="260" width="130" height="100" as="geometry"/>
                </mxCell>
                <mxCell id="7" value="False" style="text;html=1;align=center;verticalAlign=middle;resizable=0;points=[];autosize=1;strokeColor=none;fillColor=none;" vertex="1" parent="7Z-LrOooxTyzb09muiCP-1">
                    <mxGeometry x="486" y="290" width="40" height="20" as="geometry"/>
                </mxCell>
                <mxCell id="14" style="edgeStyle=orthogonalEdgeStyle;rounded=0;html=1;entryX=0.5;entryY=0;entryDx=0;entryDy=0;entryPerimeter=0;" edge="1" parent="7Z-LrOooxTyzb09muiCP-1" source="8" target="7Z-LrOooxTyzb09muiCP-6">
                    <mxGeometry relative="1" as="geometry">
                        <Array as="points">
                            <mxPoint x="635" y="480"/>
                            <mxPoint x="414" y="480"/>
                        </Array>
                    </mxGeometry>
                </mxCell>
                <mxCell id="8" value="Display number &quot; is negative&quot;" style="shape=parallelogram;html=1;strokeWidth=2;perimeter=parallelogramPerimeter;whiteSpace=wrap;rounded=1;arcSize=12;size=0.23;" vertex="1" parent="7Z-LrOooxTyzb09muiCP-1">
                    <mxGeometry x="502" y="390" width="266" height="60" as="geometry"/>
                </mxCell>
                <mxCell id="10" value="True" style="text;html=1;align=center;verticalAlign=middle;resizable=0;points=[];autosize=1;strokeColor=none;fillColor=none;" vertex="1" parent="7Z-LrOooxTyzb09muiCP-1">
                    <mxGeometry x="590" y="360" width="40" height="20" as="geometry"/>
                </mxCell>
                <mxCell id="15" style="edgeStyle=orthogonalEdgeStyle;rounded=0;html=1;" edge="1" parent="7Z-LrOooxTyzb09muiCP-1" source="11" target="7Z-LrOooxTyzb09muiCP-6">
                    <mxGeometry relative="1" as="geometry">
                        <Array as="points">
                            <mxPoint x="853" y="480"/>
                            <mxPoint x="414" y="480"/>
                        </Array>
                    </mxGeometry>
                </mxCell>
                <mxCell id="11" value="Display number &quot; is zero&quot;" style="shape=parallelogram;html=1;strokeWidth=2;perimeter=parallelogramPerimeter;whiteSpace=wrap;rounded=1;arcSize=12;size=0.23;" vertex="1" parent="7Z-LrOooxTyzb09muiCP-1">
                    <mxGeometry x="720" y="390" width="266" height="60" as="geometry"/>
                </mxCell>
            </root>
        </mxGraphModel>
    </diagram>
</mxfile>